<svg width="700" height="280" viewBox="0 0 700 280" xmlns="http://www.w3.org/2000/svg" role="img" aria-label="WasteWatch Olongapo logo">
  <rect width="700" height="280" fill="#ffffff"/>
  <rect x="60" y="60" width="5" height="160" rx="3" fill="#00c47a"/>

  <rect x="88" y="115" width="72" height="78" rx="8" fill="none" stroke="#0b1f3a" stroke-width="3.5"/>
  <rect x="82" y="100" width="84" height="16" rx="6" fill="none" stroke="#0b1f3a" stroke-width="3.5"/>
  <rect x="112" y="90" width="24" height="12" rx="5" fill="none" stroke="#0b1f3a" stroke-width="3"/>
  <line x1="108" y1="125" x2="108" y2="183" stroke="#0b1f3a" stroke-width="2" stroke-linecap="round" opacity="0.35"/>
  <line x1="124" y1="122" x2="124" y2="185" stroke="#0b1f3a" stroke-width="2" stroke-linecap="round" opacity="0.35"/>
  <line x1="140" y1="125" x2="140" y2="183" stroke="#0b1f3a" stroke-width="2" stroke-linecap="round" opacity="0.35"/>

  <circle cx="168" cy="92" r="13" fill="#00c47a"/>
  <circle cx="168" cy="89" r="5.5" fill="#ffffff"/>
  <polygon points="168,108 162,95 174,95" fill="#00c47a"/>

  <text x="200" y="152"
    font-family="Arial Black, Arial, sans-serif"
    font-size="54"
    font-weight="900"
    fill="#0b1f3a">WASTE</text>
  <text x="424" y="152"
    font-family="Arial Black, Arial, sans-serif"
    font-size="54"
    font-weight="900"
    fill="#00c47a">WATCH</text>

  <rect x="200" y="162" width="440" height="2" rx="1" fill="#0b1f3a" opacity="0.08"/>
  <text x="200" y="186"
    font-family="Arial, sans-serif"
    font-size="13"
    font-weight="400"
    letter-spacing="5"
    fill="#0b1f3a"
    opacity="0.45">OLONGAPO CITY</text>
  <text x="200" y="212"
    font-family="Georgia, serif"
    font-size="16"
    font-style="italic"
    fill="#0b1f3a"
    opacity="0.65">Keeping Our City Clean - Together.</text>
</svg>
